<svg xmlns="http://www.w3.org/2000/svg" viewBox="-287.346 -114.62 1369.013 329.24" data-kind="one-color-light" data-ink="-186.644 -13.918 981.667 113.918" data-anchors="461" data-mode="dark"><path id="part-accent" data-color="accent" data-parts="equator parallel-n parallel-s meridian-ell outline" fill="#f1f4f2" d="M-186.644 50Q-186.644 23.524 -167.923 4.803Q-149.202 -13.918 -122.726 -13.918Q-96.25 -13.918 -77.529 4.803Q-58.808 23.524 -58.808 50Q-58.808 76.476 -77.529 95.197Q-96.25 113.918 -122.726 113.918Q-149.202 113.918 -167.923 95.197Q-186.644 76.476 -186.644 50ZM-115.294 18.434L-151.442 34.152L-151.277 34.741Q-148.618 44.261 -144.609 54.141L-144.338 54.808L-104.471 37.474L-104.774 36.821Q-109.253 27.17 -114.414 18.712L-114.733 18.19ZM-101.774 45.479L-140.981 62.526L-140.678 63.179Q-136.199 72.83 -131.038 81.288L-130.719 81.81L-94.01 65.848L-94.175 65.259Q-96.834 55.739 -100.843 45.859L-101.114 45.192ZM-126.845 87.782L-126.356 88.486Q-120.093 97.5 -114.039 103.113L-113.784 103.349L-113.441 103.29Q-100.548 101.058 -90.085 93.128L-89.808 92.918L-89.807 92.57Q-89.785 84.311 -92.103 73.593L-92.285 72.755ZM-132.011 -3.29Q-144.904 -1.058 -155.367 6.872L-155.644 7.082L-155.645 7.43Q-155.667 15.689 -153.349 26.407L-153.167 27.245L-118.607 12.218L-119.096 11.514Q-125.359 2.5 -131.413 -3.113L-131.668 -3.349ZM-96.139 33.851L-74.941 24.635L-75.313 23.959Q-80.61 14.335 -89.253 7.516L-89.583 7.255L-107.779 15.168L-107.286 15.872Q-101.61 23.979 -97.053 33.51L-96.76 34.121ZM-149.313 66.149L-170.511 75.365L-170.139 76.041Q-164.842 85.665 -156.199 92.484L-155.869 92.745L-137.673 84.832L-138.166 84.128Q-143.842 76.021 -148.399 66.49L-148.692 65.879ZM-176.81 50Q-176.81 58.712 -174.111 66.918L-173.87 67.65L-152.048 58.161L-152.296 57.53Q-156.159 47.697 -158.215 38.016L-158.394 37.175L-176.593 45.088L-176.627 45.507Q-176.81 47.759 -176.81 50ZM-86.27 62.482L-68.859 54.912L-68.825 54.493Q-68.642 52.241 -68.642 50Q-68.642 41.288 -71.341 33.082L-71.582 32.35L-93.403 41.839L-93.156 42.47Q-89.293 52.303 -87.237 61.984L-87.058 62.825ZM-84.27 88.028Q-74.389 78.038 -70.633 64.589L-70.236 63.167L-85.858 69.961L-85.792 70.483Q-84.626 79.739 -85.467 87.458L-85.685 89.46ZM-161.182 11.972Q-171.063 21.962 -174.818 35.411L-175.216 36.833L-159.594 30.039L-159.66 29.517Q-160.826 20.261 -159.985 12.542L-159.767 10.54ZM-111.698 9.213L-96.564 2.632L-97.874 1.952Q-109.519 -4.084 -122.726 -4.084Q-123.554 -4.084 -124.313 -4.061L-126.321 -3.999L-124.712 -2.796Q-118.5 1.847 -112.517 9.019L-112.18 9.423ZM-133.754 90.787L-148.888 97.368L-147.578 98.048Q-135.933 104.084 -122.726 104.084Q-121.898 104.084 -121.139 104.061L-119.131 103.999L-120.74 102.796Q-126.952 98.153 -132.935 90.981L-133.272 90.577Z"/><path id="wordmark" data-color="text" data-parts="wordmark" fill="#f1f4f2" d="M574.545 102.121Q563.182 102.121 554.318 97.5Q545.455 92.879 540.53 83.636Q535.606 74.394 535.606 60.303Q535.606 45.909 540.758 36.667Q545.909 27.424 554.773 22.879Q563.636 18.333 574.697 18.333Q586.212 18.333 595 22.955Q603.788 27.576 608.712 36.894Q613.636 46.212 613.636 60.303Q613.636 74.848 608.485 84.091Q603.333 93.333 594.47 97.727Q585.606 102.121 574.545 102.121ZM51.364 102.121Q39.091 102.121 30.227 98.106Q21.364 94.091 15.606 86.894Q9.848 79.697 7.121 70.379Q4.394 61.061 4.394 50.303Q4.394 39.242 7.197 29.697Q10 20.152 15.682 13.03Q21.364 5.909 30.152 1.894Q38.939 -2.121 50.909 -2.121Q61.364 -2.121 68.939 0.833Q76.515 3.788 81.288 9.015Q86.061 14.242 88.03 21.136Q90 28.03 89.394 35.606L69.242 38.182Q69.394 31.212 67.197 26.288Q65 21.364 60.758 18.712Q56.515 16.061 50.303 16.061Q45 16.061 40.758 18.182Q36.515 20.303 33.485 24.47Q30.455 28.636 28.864 34.848Q27.273 41.061 27.273 49.394Q27.273 60.152 30 67.879Q32.727 75.606 38.258 79.773Q43.788 83.939 51.818 83.939Q59.242 83.939 63.712 80.606Q68.182 77.273 70.152 71.288Q72.121 65.303 71.667 57.576L92.273 59.545Q93.03 68.03 90.985 75.682Q88.939 83.333 84.015 89.318Q79.091 95.303 70.985 98.712Q62.879 102.121 51.364 102.121ZM490.909 102.121Q478.636 102.121 469.773 98.106Q460.909 94.091 455.152 86.894Q449.394 79.697 446.667 70.379Q443.939 61.061 443.939 50.303Q443.939 39.242 446.742 29.697Q449.545 20.152 455.227 13.03Q460.909 5.909 469.697 1.894Q478.485 -2.121 490.455 -2.121Q500.909 -2.121 508.485 0.833Q516.061 3.788 520.833 9.015Q525.606 14.242 527.576 21.136Q529.545 28.03 528.939 35.606L508.788 38.182Q508.939 31.212 506.742 26.288Q504.545 21.364 500.303 18.712Q496.061 16.061 489.848 16.061Q484.545 16.061 480.303 18.182Q476.061 20.303 473.03 24.47Q470 28.636 468.409 34.848Q466.818 41.061 466.818 49.394Q466.818 60.152 469.545 67.879Q472.273 75.606 477.803 79.773Q483.333 83.939 491.364 83.939Q498.788 83.939 503.258 80.606Q507.727 77.273 509.697 71.288Q511.667 65.303 511.212 57.576L531.818 59.545Q532.576 68.03 530.53 75.682Q528.485 83.333 523.561 89.318Q518.636 95.303 510.53 98.712Q502.424 102.121 490.909 102.121ZM321.061 102.121Q310.303 102.121 302.803 98.939Q295.303 95.758 290.606 90.152Q285.909 84.545 283.788 77.273Q281.667 70 281.667 61.667Q281.667 53.03 283.864 45.227Q286.061 37.424 290.606 31.364Q295.152 25.303 302.424 21.818Q309.697 18.333 319.545 18.333Q329.394 18.333 336.515 21.742Q343.636 25.152 347.955 31.212Q352.273 37.273 353.712 45.379Q355.152 53.485 353.788 63.182L302.879 63.939Q303.333 74.242 307.424 79.545Q311.97 85.606 321.212 85.606Q325.455 85.606 328.258 84.47Q331.061 83.333 332.803 81.288Q334.545 79.242 335.227 76.515Q335.909 73.788 335.758 70.606L355.758 71.818Q356.061 77.121 354.47 82.5Q352.879 87.879 348.864 92.273Q344.848 96.667 337.955 99.394Q331.061 102.121 321.061 102.121ZM818.939 102.121Q808.182 102.121 800.682 98.939Q793.182 95.758 788.485 90.152Q783.788 84.545 781.667 77.273Q779.545 70 779.545 61.667Q779.545 53.03 781.742 45.227Q783.939 37.424 788.485 31.364Q793.03 25.303 800.303 21.818Q807.576 18.333 817.424 18.333Q827.273 18.333 834.394 21.742Q841.515 25.152 845.833 31.212Q850.151 37.273 851.591 45.379Q853.03 53.485 851.667 63.182L800.758 63.939Q801.212 74.242 805.303 79.545Q809.849 85.606 819.091 85.606Q823.333 85.606 826.136 84.47Q828.939 83.333 830.682 81.288Q832.424 79.242 833.106 76.515Q833.788 73.788 833.636 70.606L853.636 71.818Q853.939 77.121 852.349 82.5Q850.758 87.879 846.742 92.273Q842.727 96.667 835.833 99.394Q828.939 102.121 818.939 102.121ZM620.151 100L620.151 56.818L620 20.455L638.788 20.455L638.182 54.091L639.545 54.091Q640.455 41.97 643.561 34.091Q646.667 26.212 652.349 22.273Q658.03 18.333 666.818 18.333Q679.849 18.333 686.364 27.197Q692.879 36.061 692.879 53.939L692.879 100L671.061 100L671.061 56.364Q671.061 46.818 668.258 42.121Q665.455 37.424 659.242 37.424Q653.939 37.424 650.076 41.061Q646.212 44.697 644.091 52.576Q641.97 60.455 641.97 73.333L641.97 100ZM700.909 100L700.909 56.818L700.758 20.455L719.545 20.455L718.939 54.091L720.303 54.091Q721.212 41.97 724.318 34.091Q727.424 26.212 733.106 22.273Q738.788 18.333 747.576 18.333Q760.606 18.333 767.121 27.197Q773.636 36.061 773.636 53.939L773.636 100L751.818 100L751.818 56.364Q751.818 46.818 749.015 42.121Q746.212 37.424 740 37.424Q734.697 37.424 730.833 41.061Q726.97 44.697 724.849 52.576Q722.727 60.455 722.727 73.333L722.727 100ZM896.818 102.121Q886.515 102.121 879.015 98.939Q871.515 95.758 866.667 90.076Q861.818 84.394 859.545 76.97Q857.273 69.545 857.273 61.061Q857.273 52.424 859.545 44.773Q861.818 37.121 866.515 31.136Q871.212 25.152 878.712 21.742Q886.212 18.333 896.515 18.333Q908.636 18.333 916.288 22.955Q923.939 27.576 927.121 34.924Q930.303 42.273 929.242 50.758L910.151 52.424Q910.303 46.818 908.636 43.106Q906.97 39.394 903.788 37.5Q900.606 35.606 896.061 35.606Q892.424 35.606 889.318 36.97Q886.212 38.333 883.939 41.288Q881.667 44.242 880.455 48.864Q879.242 53.485 879.242 60Q879.242 68.333 881.364 74.015Q883.485 79.697 887.5 82.652Q891.515 85.606 897.121 85.606Q903.182 85.606 906.439 82.803Q909.697 80 910.909 75.682Q912.121 71.364 911.515 66.818L931.667 67.879Q932.424 74.697 930.758 80.833Q929.091 86.97 924.849 91.818Q920.606 96.667 913.636 99.394Q906.667 102.121 896.818 102.121ZM967.424 101.667Q954.242 101.667 947.651 94.848Q941.061 88.03 941.061 73.788L941.061 37.727L932.121 37.727L932.121 23.485L933.333 23.485Q941.667 22.576 945.227 18.106Q948.788 13.636 949.545 4.545L949.697 2.576L962.727 2.576L962.727 20.455L981.667 20.455L981.667 38.182L962.727 38.182L962.727 71.818Q962.727 77.576 965.53 80.152Q968.333 82.727 972.576 82.727Q974.849 82.727 977.197 82.045Q979.545 81.364 981.667 80.152L981.667 99.545Q977.273 100.758 973.788 101.212Q970.303 101.667 967.424 101.667ZM266.061 101.667Q252.879 101.667 246.288 94.848Q239.697 88.03 239.697 73.788L239.697 37.727L230.758 37.727L230.758 23.485L231.97 23.485Q240.303 22.576 243.864 18.106Q247.424 13.636 248.182 4.545L248.333 2.576L261.364 2.576L261.364 20.455L280.303 20.455L280.303 38.182L261.364 38.182L261.364 71.818Q261.364 77.576 264.167 80.152Q266.97 82.727 271.212 82.727Q273.485 82.727 275.833 82.045Q278.182 81.364 280.303 80.152L280.303 99.545Q275.909 100.758 272.424 101.212Q268.939 101.667 266.061 101.667ZM214.697 101.667Q201.515 101.667 194.924 94.848Q188.333 88.03 188.333 73.788L188.333 37.727L179.394 37.727L179.394 23.485L180.606 23.485Q188.939 22.576 192.5 18.106Q196.061 13.636 196.818 4.545L196.97 2.576L210 2.576L210 20.455L228.939 20.455L228.939 38.182L210 38.182L210 71.818Q210 77.576 212.803 80.152Q215.606 82.727 219.848 82.727Q222.121 82.727 224.47 82.045Q226.818 81.364 228.939 80.152L228.939 99.545Q224.545 100.758 221.061 101.212Q217.576 101.667 214.697 101.667ZM361.818 100L361.818 58.182L361.667 20.455L380.758 20.455L380.303 53.485L381.515 53.485Q382.424 40.606 385.152 32.955Q387.879 25.303 392.045 21.97Q396.212 18.636 401.515 18.636Q404.091 18.636 406.894 19.318Q409.697 20 412.576 21.515L411.364 45.606Q408.333 43.939 405.303 43.106Q402.273 42.273 399.697 42.273Q394.545 42.273 390.909 45.455Q387.273 48.636 385.379 54.773Q383.485 60.909 383.485 69.697L383.485 100ZM98.182 100L98.182 58.182L98.03 20.455L117.121 20.455L116.667 53.485L117.879 53.485Q118.788 40.606 121.515 32.955Q124.242 25.303 128.409 21.97Q132.576 18.636 137.879 18.636Q140.455 18.636 143.258 19.318Q146.061 20 148.939 21.515L147.727 45.606Q144.697 43.939 141.667 43.106Q138.636 42.273 136.061 42.273Q130.909 42.273 127.273 45.455Q123.636 48.636 121.742 54.773Q119.848 60.909 119.848 69.697L119.848 100ZM153.636 100L153.636 20.455L175.455 20.455L175.455 100ZM575 85.758Q580.303 85.758 583.939 82.879Q587.576 80 589.545 74.545Q591.515 69.091 591.515 61.515Q591.515 53.182 589.394 47.5Q587.273 41.818 583.409 38.712Q579.545 35.606 574.091 35.606Q568.939 35.606 565.227 38.485Q561.515 41.364 559.621 46.894Q557.727 52.424 557.727 60.152Q557.727 72.121 562.273 78.939Q566.818 85.758 575 85.758ZM164.394 13.636Q158.03 13.636 154.697 10.909Q151.364 8.182 151.364 3.182Q151.364 -1.97 154.697 -4.697Q158.03 -7.424 164.394 -7.424Q170.758 -7.424 174.167 -4.697Q177.576 -1.97 177.576 3.182Q177.576 8.182 174.167 10.909Q170.758 13.636 164.394 13.636ZM801.364 51.515L832.121 51.061Q831.97 48.333 831.364 46.061Q830 41.061 826.591 38.409Q823.182 35.758 817.424 35.758Q811.364 35.758 807.651 38.864Q803.939 41.97 802.273 47.576Q801.667 49.394 801.364 51.515ZM303.485 51.515L334.242 51.061Q334.091 48.333 333.485 46.061Q332.121 41.061 328.712 38.409Q325.303 35.758 319.545 35.758Q313.485 35.758 309.773 38.864Q306.061 41.97 304.394 47.576Q303.788 49.394 303.485 51.515Z"/></svg>